<svg width="258" height="286" viewBox="0 0 258 286" fill="none" xmlns="http://www.w3.org/2000/svg">
<rect width="258" height="286" fill="#1E1919"/>
<path d="M137.088 234.97C132.309 234.97 128 233.861 124.16 231.642C120.405 229.338 117.419 226.223 115.2 222.298C113.067 218.287 112 213.807 112 208.858V202.97C112 202.629 112.171 202.458 112.512 202.458H126.976C127.317 202.458 127.488 202.671 127.488 203.098V208.858C127.488 212.015 128.384 214.575 130.176 216.538C131.968 218.501 134.272 219.482 137.088 219.482C139.648 219.482 141.867 218.415 143.744 216.282C145.621 214.149 146.56 211.674 146.56 208.858V141.64C146.56 141.299 146.731 141.128 147.072 141.128L161.536 141C161.877 141 162.048 141.213 162.048 141.64V208.858C162.048 213.551 160.896 217.903 158.592 221.914C156.373 225.839 153.387 228.997 149.632 231.386C145.877 233.775 141.696 234.97 137.088 234.97Z" fill="#F7F0F0"/>
<path d="M96.512 141.088C96.1707 141.088 96 140.875 96 140.448L96.256 52.512C96.256 52.1707 96.4267 52 96.768 52H122.624C127.232 52 131.456 53.152 135.296 55.456C139.221 57.6747 142.336 60.704 144.64 64.544C146.944 68.2987 148.096 72.5653 148.096 77.344C148.096 80.5013 147.627 83.36 146.688 85.92C145.749 88.3947 144.64 90.528 143.36 92.32C142.08 94.0267 140.928 95.3067 139.904 96.16C144.512 101.28 146.816 107.296 146.816 114.208L146.944 140.448C146.944 140.875 146.731 141.088 146.304 141.088H131.84C131.499 141.088 131.328 140.96 131.328 140.704V114.208C131.328 111.136 130.219 108.491 128 106.272C125.867 103.968 123.221 102.816 120.064 102.816H111.616L111.488 140.448C111.488 140.875 111.317 141.088 110.976 141.088H96.512ZM111.616 87.456H122.624C125.269 87.456 127.616 86.4747 129.664 84.512C131.712 82.5493 132.736 80.16 132.736 77.344C132.736 74.6133 131.712 72.2667 129.664 70.304C127.701 68.3413 125.355 67.36 122.624 67.36H111.616V87.456Z" fill="#F7F0F0"/>
</svg>
